<svg width="30" height="31" viewBox="0 0 30 31" fill="none" xmlns="http://www.w3.org/2000/svg">
<path d="M19.6291 29.5636C19.5085 29.5636 19.3871 29.553 19.2665 29.5313C15.1151 28.7841 10.9769 26.5212 7.61439 23.1587C4.25191 19.7962 1.98897 15.6579 1.24168 11.5066C1.10089 10.7231 1.42922 9.90822 2.07818 9.43056C2.90924 8.81894 3.80473 8.25036 4.73926 7.74162C5.35886 7.40446 6.08933 7.38565 6.69468 7.69061C8.7641 8.73372 10.1358 10.4711 10.7716 12.8544C10.9441 13.4993 10.7905 14.1986 10.361 14.7248L8.98982 16.4027C8.77008 16.6717 8.7433 17.0427 8.92341 17.3261C10.0899 19.1615 11.6115 20.6831 13.4471 21.8493C13.73 22.0298 14.1011 22.0027 14.3705 21.7832L16.048 20.4123C16.5744 19.9825 17.2729 19.8293 17.919 20.0014C20.302 20.6375 22.0393 22.0093 23.0825 24.0787C23.3877 24.6834 23.3689 25.4142 23.0318 26.0338C22.5227 26.9683 21.9541 27.8638 21.3422 28.6949C20.9383 29.2438 20.2929 29.5636 19.6291 29.5636ZM5.77696 8.78759C5.63987 8.78759 5.49851 8.8235 5.36741 8.89504C4.48476 9.37555 3.64029 9.91165 2.8568 10.4882C2.608 10.6715 2.48145 10.9798 2.53447 11.2739C3.23443 15.1643 5.36827 19.0552 8.54293 22.2301C11.7179 25.4048 15.6088 27.5386 19.4991 28.2385C19.7938 28.2913 20.1015 28.1648 20.2845 27.9163C20.8614 27.1328 21.3975 26.2883 21.8783 25.4057C22.0091 25.1651 22.0211 24.8901 21.91 24.6701C21.0301 22.925 19.614 21.8128 17.5802 21.2702C17.3419 21.2069 17.0791 21.266 16.8788 21.4295L15.2015 22.8001C14.4927 23.3792 13.5041 23.4425 12.7424 22.9578C10.7435 21.6875 9.08559 20.0296 7.81503 18.0306C7.33053 17.2685 7.3938 16.2801 7.97292 15.5716L9.3438 13.894C9.5071 13.694 9.56667 13.432 9.50283 13.1932C8.96019 11.1592 7.84809 9.74292 6.1033 8.86311C6.00297 8.81267 5.89153 8.78759 5.77696 8.78759Z" fill="white"/>
<path d="M28.1228 16.463C28.1134 16.463 28.1041 16.4627 28.0949 16.4624C27.7323 16.4473 27.4511 16.1412 27.4662 15.779C27.6064 12.4328 26.3333 9.16007 23.9734 6.79966C21.6133 4.43983 18.3475 3.16015 14.9941 3.30693C14.6453 3.31605 14.3257 3.04102 14.3106 2.67821C14.2955 2.31597 14.5769 2.00987 14.9391 1.99477C18.6518 1.83744 22.2825 3.25192 24.902 5.87112C27.5212 8.49031 28.934 12.1218 28.7784 15.834C28.7635 16.1868 28.4729 16.463 28.1228 16.463Z" fill="white"/>
<path d="M24.629 16.4632C24.6161 16.4632 24.6031 16.4629 24.5899 16.4621C24.2277 16.4408 23.9515 16.1301 23.9729 15.7681C24.1154 13.347 23.2165 10.9775 21.5062 9.26716C19.7959 7.55685 17.4249 6.66023 15.0052 6.80044C14.6412 6.82468 14.3326 6.54566 14.3112 6.18341C14.2898 5.82146 14.566 5.5108 14.9283 5.48943C17.7202 5.32326 20.4597 6.36325 22.4347 8.33862C24.4101 10.314 25.4487 13.0501 25.2839 15.8451C25.2634 16.1942 24.9741 16.4632 24.629 16.4632Z" fill="white"/>
<path d="M21.1391 16.4631C21.1186 16.4631 21.0981 16.4624 21.0773 16.4603C20.7161 16.4267 20.4507 16.1066 20.4844 15.7456C20.6235 14.2544 20.0968 12.7923 19.0389 11.7344C17.981 10.6767 16.52 10.1495 15.0277 10.2888C14.6669 10.3216 14.3462 10.0571 14.3129 9.69602C14.2793 9.33492 14.5446 9.01486 14.9057 8.98123C16.789 8.80596 18.6325 9.47087 19.9675 10.8058C21.3026 12.1408 21.9676 13.9859 21.792 15.8675C21.7604 16.2078 21.4742 16.4631 21.1391 16.4631Z" fill="white"/>
</svg>
