<svg width="30" height="31" viewBox="0 0 30 31" fill="none" xmlns="http://www.w3.org/2000/svg">
<path d="M24.5077 4.40674C21.9419 4.40674 19.7814 6.17533 19.1812 8.55746H2.19469C1.62064 8.55746 1.07824 8.77748 0.666211 9.17727L0.664922 9.1785L0.660762 9.18248C0.234668 9.59897 0 10.1564 0 10.7521V24.9454C0 25.5499 0.253008 26.1334 0.693984 26.5463L0.696621 26.5488C1.10455 26.9301 1.63652 27.1401 2.19469 27.1401H22.899C23.4554 27.1401 23.9858 26.9315 24.393 26.5526C24.396 26.55 24.3988 26.5473 24.4017 26.5445C24.8415 26.1314 25.0936 25.5489 25.0936 24.9454V15.3603C27.8477 15.0669 30 12.7296 30 9.89903C30 6.87061 27.5362 4.40674 24.5077 4.40674ZM2.19469 9.72934H19.0181C19.0164 9.78571 19.0155 9.84225 19.0155 9.89903C19.0155 10.9484 19.3113 11.9299 19.8239 12.7647L12.9298 19.2816H12.1639L2.06695 9.73719C2.10902 9.73197 2.15168 9.72934 2.19469 9.72934ZM1.17188 10.7521C1.17188 10.6754 1.18025 10.6001 1.19654 10.5271L9.40494 18.2863L1.21734 25.2482C1.18764 25.1516 1.17188 25.05 1.17188 24.9454V10.7521ZM22.899 25.9682H2.19469C2.18988 25.9682 2.1852 25.9676 2.18045 25.9675L10.2616 19.0961L11.5283 20.2934C11.6371 20.3963 11.7812 20.4535 11.9309 20.4535H13.1629C13.3126 20.4535 13.4566 20.3962 13.5654 20.2934L14.8321 19.0961L22.9139 25.9681C22.9089 25.9681 22.9039 25.9682 22.899 25.9682ZM23.9218 24.9454C23.9218 25.05 23.9064 25.1518 23.8766 25.2484L15.6887 18.2862L20.5437 13.6969C21.4169 14.6079 22.6 15.2195 23.9218 15.3603V24.9454ZM24.5077 14.2195C22.1254 14.2195 20.1873 12.2813 20.1873 9.89903C20.1873 7.51672 22.1254 5.57862 24.5077 5.57862C26.89 5.57862 28.8281 7.51672 28.8281 9.89903C28.8281 12.2813 26.89 14.2195 24.5077 14.2195Z" fill="white"/>
<path d="M24.7045 8.02246H24.0781C23.7545 8.02246 23.4922 8.28485 23.4922 8.6084C23.4922 8.93195 23.7545 9.19434 24.0781 9.19434H24.1186V11.5376C24.1186 11.8611 24.3809 12.1235 24.7045 12.1235C25.0281 12.1235 25.2904 11.8611 25.2904 11.5376V8.6084C25.2904 8.28479 25.0281 8.02246 24.7045 8.02246Z" fill="white"/>
</svg>
