<svg width="19" height="19" viewBox="0 0 19 19" fill="none" xmlns="http://www.w3.org/2000/svg">
<g clip-path="url(#clip0_1_890)">
<path d="M18.5923 5.59131C18.5688 5.11084 18.522 4.69775 18.4517 4.35205C18.3813 4.00635 18.2876 3.69287 18.1704 3.41162C18.0532 3.10693 17.9097 2.81982 17.7397 2.55029C17.5698 2.28076 17.3677 2.03467 17.1333 1.81201C16.9106 1.58936 16.6646 1.39014 16.395 1.21436C16.1255 1.03857 15.8384 0.89209 15.5337 0.774902C15.2524 0.669434 14.939 0.578613 14.5933 0.502441C14.2476 0.42627 13.8345 0.376465 13.354 0.353027C12.8735 0.32959 12.4399 0.314941 12.0532 0.309082C11.6665 0.303223 10.8638 0.300293 9.64502 0.300293C8.42627 0.300293 7.62354 0.303223 7.23682 0.309082C6.8501 0.314941 6.4165 0.32959 5.93604 0.353027C5.45557 0.376465 5.04248 0.42334 4.69678 0.493652C4.35107 0.563965 4.0376 0.657715 3.75635 0.774902C3.45166 0.89209 3.16455 1.03564 2.89502 1.20557C2.62549 1.37549 2.37939 1.57764 2.15674 1.81201C1.92236 2.03467 1.71729 2.28076 1.5415 2.55029C1.36572 2.81982 1.2251 3.10693 1.11963 3.41162C1.00244 3.69287 0.908691 4.00635 0.838379 4.35205C0.768066 4.69775 0.721191 5.11084 0.697754 5.59131C0.674316 6.07178 0.659668 6.50537 0.653809 6.89209C0.647949 7.27881 0.64502 8.08154 0.64502 9.30029C0.64502 10.519 0.647949 11.3218 0.653809 11.7085C0.659668 12.0952 0.674316 12.5288 0.697754 13.0093C0.721191 13.4897 0.768066 13.9028 0.838379 14.2485C0.908691 14.5942 1.00244 14.9077 1.11963 15.189C1.2251 15.4937 1.36572 15.7808 1.5415 16.0503C1.71729 16.3198 1.92236 16.5659 2.15674 16.7886C2.37939 17.0229 2.62549 17.228 2.89502 17.4038C3.16455 17.5796 3.4458 17.7202 3.73877 17.8257C4.03174 17.9429 4.35107 18.0366 4.69678 18.1069C5.04248 18.1772 5.45557 18.2241 5.93604 18.2476C6.4165 18.271 6.84717 18.2856 7.22803 18.2915C7.60889 18.2974 8.41455 18.3003 9.64502 18.3003C10.8638 18.3003 11.6665 18.2974 12.0532 18.2915C12.4399 18.2856 12.8735 18.271 13.354 18.2476C13.8345 18.2241 14.2476 18.1772 14.5933 18.1069C14.939 18.0366 15.2524 17.9429 15.5337 17.8257C16.1431 17.5913 16.6763 17.2456 17.1333 16.7886C17.5903 16.3315 17.936 15.7983 18.1704 15.189C18.2759 14.9077 18.3667 14.5942 18.4429 14.2485C18.519 13.9028 18.5688 13.4897 18.5923 13.0093C18.604 12.5288 18.6157 12.0952 18.6274 11.7085C18.6392 11.3218 18.645 10.519 18.645 9.30029C18.645 8.08154 18.6421 7.27881 18.6362 6.89209C18.6304 6.50537 18.6157 6.07178 18.5923 5.59131ZM16.9751 12.939C16.9517 13.3843 16.9077 13.7358 16.8433 13.9937C16.7788 14.2515 16.7173 14.4565 16.6587 14.6089C16.5063 15.0073 16.2808 15.353 15.9819 15.646C15.6831 15.939 15.3403 16.1616 14.9536 16.314C14.7896 16.3843 14.5786 16.4487 14.3208 16.5073C14.063 16.5659 13.7173 16.6069 13.2837 16.6304C12.8032 16.6538 12.3784 16.6685 12.0093 16.6743C11.6401 16.6802 10.8521 16.6831 9.64502 16.6831C8.44971 16.6831 7.66455 16.6802 7.28955 16.6743C6.91455 16.6685 6.48682 16.6538 6.00635 16.6304C5.57275 16.6069 5.22705 16.5659 4.96924 16.5073C4.71143 16.4487 4.50049 16.3843 4.33643 16.314C4.14893 16.2437 3.96729 16.1528 3.7915 16.0415C3.61572 15.9302 3.45166 15.7983 3.29932 15.646C3.15869 15.5054 3.02979 15.3472 2.9126 15.1714C2.79541 14.9956 2.70166 14.8081 2.63135 14.6089C2.57275 14.4565 2.51123 14.2515 2.44678 13.9937C2.38232 13.7358 2.34424 13.3843 2.33252 12.939C2.30908 12.4702 2.29443 12.0483 2.28857 11.6733C2.28271 11.2983 2.27979 10.5073 2.27979 9.30029C2.27979 8.10498 2.28271 7.31982 2.28857 6.94482C2.29443 6.56982 2.30908 6.14795 2.33252 5.6792C2.34424 5.23389 2.38232 4.88232 2.44678 4.62451C2.51123 4.3667 2.57275 4.16162 2.63135 4.00928C2.70166 3.81006 2.79541 3.62256 2.9126 3.44678C3.02979 3.271 3.16455 3.11279 3.31689 2.97217C3.45752 2.81982 3.61572 2.68799 3.7915 2.57666C3.96729 2.46533 4.14893 2.37451 4.33643 2.3042C4.50049 2.23389 4.71143 2.16943 4.96924 2.11084C5.22705 2.05225 5.57275 2.01123 6.00635 1.98779C6.48682 1.96436 6.91455 1.94971 7.28955 1.94385C7.66455 1.93799 8.44971 1.93506 9.64502 1.93506C10.8521 1.93506 11.6431 1.93799 12.0181 1.94385C12.3931 1.94971 12.8149 1.96436 13.2837 1.98779C13.729 2.01123 14.0806 2.05225 14.3384 2.11084C14.5962 2.16943 14.8013 2.23389 14.9536 2.3042C15.1528 2.37451 15.3403 2.46533 15.5161 2.57666C15.6919 2.68799 15.8501 2.81982 15.9907 2.97217C16.1431 3.11279 16.2749 3.271 16.3862 3.44678C16.4976 3.62256 16.5884 3.81006 16.6587 4.00928C16.7173 4.16162 16.7788 4.3667 16.8433 4.62451C16.9077 4.88232 16.9517 5.23389 16.9751 5.6792C16.9985 6.14795 17.0132 6.56982 17.019 6.94482C17.0249 7.31982 17.0278 8.10498 17.0278 9.30029C17.0278 10.5073 17.0249 11.2983 17.019 11.6733C17.0132 12.0483 16.9985 12.4702 16.9751 12.939ZM9.64502 4.67725C9.00049 4.67725 8.40283 4.80029 7.85205 5.04639C7.28955 5.28076 6.79736 5.60889 6.37549 6.03076C5.95361 6.45264 5.62549 6.94482 5.39111 7.50732C5.14502 8.06982 5.02197 8.66748 5.02197 9.30029C5.02197 9.94482 5.14502 10.5425 5.39111 11.0933C5.62549 11.6558 5.95361 12.1479 6.37549 12.5698C6.79736 12.9917 7.28955 13.3198 7.85205 13.5542C8.40283 13.8003 9.00049 13.9233 9.64502 13.9233C10.2778 13.9233 10.8755 13.8003 11.438 13.5542C12.0005 13.3198 12.4927 12.9917 12.9146 12.5698C13.3364 12.1479 13.6646 11.6558 13.8989 11.0933C14.145 10.5425 14.2681 9.94482 14.2681 9.30029C14.2681 8.66748 14.145 8.06982 13.8989 7.50732C13.6646 6.94482 13.3364 6.45264 12.9146 6.03076C12.4927 5.60889 12.0005 5.28076 11.438 5.04639C10.8755 4.80029 10.2778 4.67725 9.64502 4.67725ZM9.64502 12.3062C8.81299 12.3062 8.104 12.0132 7.51807 11.4272C6.93213 10.8413 6.63916 10.1323 6.63916 9.30029C6.63916 8.46826 6.93213 7.75928 7.51807 7.17334C8.104 6.5874 8.81299 6.29443 9.64502 6.29443C10.4771 6.29443 11.186 6.5874 11.772 7.17334C12.3579 7.75928 12.6509 8.46826 12.6509 9.30029C12.6509 10.1323 12.3579 10.8413 11.772 11.4272C11.186 12.0132 10.4771 12.3062 9.64502 12.3062ZM15.5337 4.50146C15.5337 4.79443 15.4282 5.04639 15.2173 5.25732C15.0063 5.46826 14.7485 5.57373 14.4438 5.57373C14.1509 5.57373 13.8989 5.46826 13.688 5.25732C13.4771 5.04639 13.3716 4.79443 13.3716 4.50146C13.3716 4.19678 13.4771 3.93896 13.688 3.72803C13.8989 3.51709 14.1509 3.41162 14.4438 3.41162C14.7485 3.41162 15.0063 3.51709 15.2173 3.72803C15.4282 3.93896 15.5337 4.19678 15.5337 4.50146Z" fill="#FF9900"/>
</g>
<defs>
<clipPath id="clip0_1_890">
<rect width="18" height="18" fill="white" transform="matrix(1 0 0 -1 0.609863 18.3003)"/>
</clipPath>
</defs>
</svg>
