<svg width="30" height="31" viewBox="0 0 30 31" fill="none" xmlns="http://www.w3.org/2000/svg">
<mask id="mask0_1_3315" style="mask-type:luminance" maskUnits="userSpaceOnUse" x="0" y="1" width="30" height="30">
<path d="M29.5161 1.25732H0.483887V30.2896H29.5161V1.25732Z" fill="white"/>
</mask>
<g mask="url(#mask0_1_3315)">
<path d="M15.0001 1.48438C8.8719 1.48438 3.88623 6.47004 3.88623 12.5983C3.88623 15.5753 5.68981 19.3981 9.24682 23.9605C10.8765 26.0453 12.6413 28.0208 14.5298 29.8743C14.6565 29.9954 14.8249 30.063 15.0001 30.063C15.1754 30.063 15.3438 29.9954 15.4705 29.8743C17.359 28.0208 19.1238 26.0453 20.7535 23.9605C24.3105 19.3981 26.1141 15.5753 26.1141 12.5983C26.1141 6.47004 21.1284 1.48438 15.0001 1.48438ZM15.0001 28.4249C12.9918 26.4004 5.24713 18.2272 5.24713 12.5983C5.24713 7.22046 9.62232 2.84526 15.0001 2.84526C20.378 2.84526 24.7531 7.22046 24.7531 12.5983C24.7531 18.2272 17.0085 26.4004 15.0001 28.4249Z" fill="white"/>
<path d="M20.4476 11.641L15.4576 7.1047C15.3324 6.99083 15.1692 6.92773 15 6.92773C14.8307 6.92773 14.6674 6.99083 14.5422 7.1047L9.5523 11.641C9.45069 11.7333 9.3794 11.8543 9.34783 11.988C9.31624 12.1216 9.32585 12.2617 9.37537 12.3899C9.42489 12.5179 9.51201 12.628 9.62529 12.7056C9.73856 12.7833 9.87268 12.8249 10.01 12.8249H10.6905V16.2272C10.6905 16.4075 10.7621 16.5807 10.8898 16.7082C11.0174 16.8359 11.1904 16.9076 11.3709 16.9076H13.8659C14.0463 16.9076 14.2194 16.8359 14.347 16.7082C14.4746 16.5807 14.5463 16.4075 14.5463 16.2272V14.1858H15.4535V16.2272C15.4535 16.4075 15.5252 16.5807 15.6529 16.7082C15.7804 16.8359 15.9536 16.9076 16.134 16.9076H18.629C18.8095 16.9076 18.9825 16.8359 19.1101 16.7082C19.2377 16.5807 19.3094 16.4075 19.3094 16.2272V12.8249H19.9898C20.1271 12.8249 20.2613 12.7833 20.3746 12.7056C20.4878 12.628 20.575 12.5179 20.6245 12.3899C20.674 12.2617 20.6836 12.1216 20.6521 11.988C20.6205 11.8543 20.5492 11.7333 20.4476 11.641ZM17.9486 12.1444V15.5466H16.8145V13.5054C16.8145 13.3249 16.7428 13.1518 16.6151 13.0242C16.4876 12.8966 16.3144 12.8249 16.134 12.8249H13.8659C13.6854 12.8249 13.5123 12.8966 13.3847 13.0242C13.2571 13.1518 13.1854 13.3249 13.1854 13.5054V15.5466H12.0513V12.1444C12.0513 12.02 12.0173 11.898 11.9527 11.7915C11.8883 11.6852 11.7958 11.5984 11.6854 11.5409L15 8.52772L18.3145 11.5409C18.204 11.5984 18.1116 11.6852 18.0471 11.7915C17.9826 11.898 17.9485 12.02 17.9486 12.1444Z" fill="white"/>
</g>
</svg>
