<svg width="25" height="27" viewBox="0 0 25 27" fill="none" xmlns="http://www.w3.org/2000/svg">
<path d="M7.42529 19.7875C7.12529 19.7875 6.92529 19.6818 6.72529 19.4706C6.32529 19.0482 6.32529 18.4145 6.72529 17.9921L16.7253 7.43109C17.1253 7.00865 17.7253 7.00865 18.1253 7.43109C18.5253 7.85353 18.5253 8.48719 18.1253 8.90963L8.12529 19.4706C7.92529 19.6818 7.72529 19.7875 7.42529 19.7875Z" fill="white"/>
<path d="M17.4253 18.7314C16.8253 18.7314 16.4253 18.3089 16.4253 17.6753V9.22646H8.42529C7.82529 9.22646 7.42529 8.80402 7.42529 8.17036C7.42529 7.5367 7.82529 7.11426 8.42529 7.11426H17.4253C18.0253 7.11426 18.4253 7.5367 18.4253 8.17036V17.6753C18.4253 18.3089 18.0253 18.7314 17.4253 18.7314Z" fill="white"/>
</svg>
